<svg xmlns="http://www.w3.org/2000/svg" width="256" height="256" viewBox="0 0 100 100"><rect width="100" height="100" rx="20" fill="#1c5f7b"></rect><path fill="#ffffff" d="M81.24 21.88L81.24 21.88Q83.08 21.88 84.76 23.28Q86.44 24.68 86.44 27.08L86.44 27.08Q86.44 27.80 86.20 28.68L86.20 28.68L70.44 75.08Q69.96 76.52 68.72 77.28Q67.48 78.04 66.12 78.12L66.12 78.12Q64.76 78.12 63.44 77.32Q62.12 76.52 61.40 75L61.40 75L49.56 48.12L50.28 48.60L38.60 75Q37.88 76.52 36.56 77.32Q35.24 78.12 33.88 78.12L33.88 78.12Q32.60 78.04 31.32 77.28Q30.04 76.52 29.56 75.08L29.56 75.08L13.80 28.68Q13.56 27.80 13.56 27.08L13.56 27.08Q13.56 24.68 15.28 23.28Q17.00 21.88 18.84 21.88L18.84 21.88Q20.36 21.88 21.68 22.68Q23.00 23.48 23.48 25L23.48 25L36.20 63.56L34.44 63.48L45.80 36.20Q46.44 34.76 47.64 33.92Q48.84 33.08 50.36 33.16L50.36 33.16Q51.88 33.08 53.08 33.92Q54.28 34.76 54.84 36.20L54.84 36.20L65.24 62.28L63.96 63.08L76.52 25Q77 23.48 78.36 22.68Q79.72 21.88 81.24 21.88Z"></path></svg>